<svg width="96" height="96" viewBox="0 0 96 96" fill="none" xmlns="http://www.w3.org/2000/svg">
  <path d="M48 8L66 18.5V39.5L48 50L30 39.5V18.5L48 8Z" fill="#46C2FF"/>
  <path d="M30 39.5L48 50V71L30 81.5L12 71V50L30 39.5Z" fill="#40DFA5"/>
  <path d="M66 39.5L84 50V71L66 81.5L48 71V50L66 39.5Z" fill="#FF5A5A"/>
  <path d="M30 81.5L48 71L66 81.5L48 92L30 81.5Z" fill="#F5A623"/>
  <path d="M12 50L30 39.5V60.5L12 71V50Z" fill="#7BE7C5"/>
  <path d="M84 50L66 39.5V60.5L84 71V50Z" fill="#FF8B7F"/>
  <path d="M48 8V29L30 39.5V18.5L48 8Z" fill="#6FD4FF"/>
  <path d="M48 8V29L66 39.5V18.5L48 8Z" fill="#34AFFF"/>
</svg>
